<svg width="25" height="24" viewBox="0 0 25 24" fill="none" xmlns="http://www.w3.org/2000/svg">
    <path fill-rule="evenodd" clip-rule="evenodd"
        d="M23.991 13.7635C24.4598 14.2319 24.4602 14.9917 23.9918 15.4606L19.8162 19.6402C19.5911 19.8655 19.2857 19.9921 18.9672 19.9921C18.6488 19.9921 18.3434 19.8655 18.1183 19.6402L13.9427 15.4606C13.4743 14.9917 13.4746 14.2319 13.9435 13.7635C14.4123 13.2951 15.1721 13.2955 15.6405 13.7643L18.9672 17.0942L22.2939 13.7643C22.7623 13.2955 23.5221 13.2951 23.991 13.7635Z"
        fill="#6E7279" />
    <path fill-rule="evenodd" clip-rule="evenodd"
        d="M17.7703 9.3877C17.7703 8.5971 17.4565 7.83911 16.8983 7.28041C16.3402 6.72176 15.5835 6.40811 14.7947 6.40811L12.7068 6.40811C12.0441 6.40811 11.5068 5.87085 11.5068 5.20811C11.5068 4.54537 12.0441 4.00811 12.7068 4.00811L14.7947 4.00811C16.2207 4.00811 17.5882 4.57517 18.5962 5.58416C19.6042 6.59312 20.1703 7.96131 20.1703 9.3877V18.7918C20.1703 19.4545 19.633 19.9918 18.9703 19.9918C18.3075 19.9918 17.7703 19.4545 17.7703 18.7918L17.7703 9.3877Z"
        fill="#6E7279" />
    <path fill-rule="evenodd" clip-rule="evenodd"
        d="M0.351874 10.2366C-0.116977 9.76817 -0.117337 9.00837 0.35107 8.53952L4.5267 4.35993C4.75178 4.13464 5.05718 4.00806 5.37563 4.00806C5.69409 4.00806 5.99949 4.13464 6.22456 4.35993L10.4002 8.53952C10.8686 9.00837 10.8682 9.76817 10.3994 10.2366C9.93054 10.705 9.17074 10.7046 8.70234 10.2358L5.37563 6.90592L2.04893 10.2358C1.58052 10.7046 0.820725 10.705 0.351874 10.2366Z"
        fill="#6E7279" />
    <path fill-rule="evenodd" clip-rule="evenodd"
        d="M6.57257 5.20833L6.57257 14.6124C6.57257 15.403 6.88635 16.161 7.44452 16.7197C8.00264 17.2784 8.75939 17.592 9.54821 17.592H11.636C12.2988 17.592 12.836 18.1293 12.836 18.792C12.836 19.4547 12.2988 19.992 11.636 19.992H9.54821C8.12213 19.992 6.75469 19.425 5.74666 18.416C4.73865 17.407 4.17257 16.0388 4.17257 14.6124L4.17257 5.20833C4.17257 4.54559 4.70983 4.00833 5.37257 4.00833C6.03531 4.00833 6.57257 4.54559 6.57257 5.20833Z"
        fill="#6E7279" />
</svg>
